# xmcd
#
# Track frame offsets:
#	150
#	25685
#	39190
#	66041
#	87143
#	104210
#	127723
#	147340
#	165205
#	184134
#	208501
#	225734
#	242085
#
# Disc length: 3883 seconds
#
# Revision: 0
# Processed by: cddbd v1.5.2PL0 Copyright (c) Steve Scherf et al.
# Submitted via: EZCDAudioConverter 3.1.4.1
#
DISCID=a10f290d
DTITLE=Kai Strauss - I Go By Feel 
DYEAR=2015
DGENRE=Blues
TTITLE0=A Fool Way Too Long
TTITLE1=Drinkin' Woman
TTITLE2=Luther's Blues
TTITLE3=Gotta Wake Up
TTITLE4=Knockin' On Your Door
TTITLE5=Back And Forth
TTITLE6=Midnight Shift
TTITLE7=Soul Fixin' Man
TTITLE8=Ain't Gonna Ramble No More
TTITLE9=Money Is The Name Of The Game
TTITLE10=I Take My Time
TTITLE11=I'm Leaving You
TTITLE12=Early In The Morning
EXTD=
EXTT0=
EXTT1=
EXTT2=
EXTT3=
EXTT4=
EXTT5=
EXTT6=
EXTT7=
EXTT8=
EXTT9=
EXTT10=
EXTT11=
EXTT12=
PLAYORDER=
